<?xml version="1.0" encoding="UTF-8" standalone="no"?>
<!-- Generator: Adobe Illustrator 16.0.0, SVG Export Plug-In . SVG Version: 6.00 Build 0)  -->

<svg
   xmlns:dc="http://purl.org/dc/elements/1.1/"
   xmlns:cc="http://creativecommons.org/ns#"
   xmlns:rdf="http://www.w3.org/1999/02/22-rdf-syntax-ns#"
   xmlns:svg="http://www.w3.org/2000/svg"
   xmlns="http://www.w3.org/2000/svg"
   xmlns:sodipodi="http://sodipodi.sourceforge.net/DTD/sodipodi-0.dtd"
   xmlns:inkscape="http://www.inkscape.org/namespaces/inkscape"
   version="1.1"
   x="0px"
   y="0px"
   width="926"
   height="926"
   viewBox="146.485 704.338 925.99998 925.99999"
   enable-background="new 146.485 704.338 255.118 170.079"
   xml:space="preserve"
   id="svg2"
   inkscape:version="0.91 r13725"
   sodipodi:docname="icon.svg"
   inkscape:export-filename="/Users/lafargue/VizApp/rpibleconf/app/rpiconfig/icon.png"
   inkscape:export-xdpi="82.989998"
   inkscape:export-ydpi="82.989998"><metadata
     id="metadata3389"><rdf:RDF><cc:Work
         rdf:about=""><dc:format>image/svg+xml</dc:format><dc:type
           rdf:resource="http://purl.org/dc/dcmitype/StillImage" /><dc:title></dc:title></cc:Work></rdf:RDF></metadata><defs
     id="defs3387"><path
       id="a"
       d="M 0,0 24,0 24,24 0,24 0,0 Z"
       inkscape:connector-curvature="0" /></defs><sodipodi:namedview
     pagecolor="#ffffff"
     bordercolor="#666666"
     borderopacity="1"
     objecttolerance="10"
     gridtolerance="10"
     guidetolerance="10"
     inkscape:pageopacity="0"
     inkscape:pageshadow="2"
     inkscape:window-width="1435"
     inkscape:window-height="850"
     id="namedview3385"
     showgrid="false"
     inkscape:zoom="0.49058733"
     inkscape:cx="391.01306"
     inkscape:cy="357.33512"
     inkscape:window-x="1163"
     inkscape:window-y="2182"
     inkscape:window-maximized="0"
     inkscape:current-layer="svg2"
     fit-margin-top="0"
     fit-margin-left="0"
     fit-margin-right="0"
     fit-margin-bottom="0" /><path
     style="fill:none"
     inkscape:connector-curvature="0"
     d="m 41.423744,612.42295 1110.452856,0 0,1110.45285 -1110.452856,0 z"
     id="path6079" /><path
     sodipodi:nodetypes="csccccccccssccccccccsccccccccsscccccccc"
     style="fill:#3b5998;fill-opacity:1"
     inkscape:connector-curvature="0"
     d="m 954.42785,1212.9928 c 1.8507,-14.806 3.2388,-29.612 3.2388,-45.3434 0,-15.7315 -1.3881,-30.5375 -3.2388,-45.3435 l 97.62735,-76.3437 c 8.7911,-6.9403 11.1045,-19.4329 5.5523,-29.612 L 965.06965,856.25988 c -5.5522,-10.17915 -18.0448,-13.88066 -28.224,-10.17915 L 821.63619,892.3496 c -24.05981,-18.50755 -49.97037,-33.77627 -78.19438,-45.34349 l -17.58217,-122.6125 c -1.38807,-11.10453 -11.10453,-19.43292 -22.67175,-19.43292 l -185.07547,0 c -11.56722,0 -21.28368,8.32839 -22.67175,19.43292 l -17.58217,122.6125 c -28.224,11.56722 -54.13457,27.29863 -78.19438,45.34349 L 284.45464,846.08073 c -10.64184,-4.16419 -22.67175,0 -28.22401,10.17915 l -92.53774,160.09032 c -6.01495,10.1791 -3.23882,22.6717 5.55227,29.612 l 97.62731,76.3437 c -1.85076,14.806 -3.23882,30.0747 -3.23882,45.3435 0,15.2687 1.38806,30.5374 3.23882,45.3434 l -97.62731,76.3437 c -8.79109,6.9403 -11.10453,19.4329 -5.55227,29.6121 l 92.53774,160.0902 c 5.55226,10.1792 18.04486,13.8807 28.22401,10.1792 l 115.20948,-46.2689 c 24.05981,18.5076 49.97038,33.7763 78.19438,45.3435 l 17.58217,122.6125 c 1.38807,11.1045 11.10453,19.4329 22.67175,19.4329 l 185.07547,0 c 11.56722,0 21.28368,-8.3284 22.67175,-19.4329 l 17.58217,-122.6125 c 28.22401,-11.5672 54.13457,-27.2986 78.19438,-45.3435 l 115.20946,46.2689 c 10.6419,4.1642 22.6718,0 28.224,-10.1792 l 92.53785,-160.0902 c 5.5522,-10.1792 3.2388,-22.6718 -5.5523,-29.6121 z"
     id="path6081" /><g
     style="fill:#000000"
     id="g5953"
     transform="matrix(30.252468,0,0,30.252468,233.62054,804.61975)"><path
       id="path5943"
       d="M 0,0 24,0 24,24 0,24 Z"
       inkscape:connector-curvature="0"
       style="fill:none" /><path
       id="path5945"
       d="M 17.71,7.71 12,2 11,2 11,9.59 6.41,5 5,6.41 10.59,12 5,17.59 6.41,19 11,14.41 11,22 12,22 17.71,16.29 13.41,12 17.71,7.71 Z M 13,5.83 14.88,7.71 13,9.59 13,5.83 Z m 1.88,10.46 -1.88,1.88 0,-3.76 1.88,1.88 z"
       inkscape:connector-curvature="0"
       style="fill:#ffffff;fill-opacity:1" /></g></svg>